# xmcd
#
# Track frame offsets:
#	183
#	14175
#	27923
#	43495
#	56355
#	70663
#	83423
#	97315
#	109635
#	122528
#	135233
#	148003
#	158808
#	170215
#	184618
#	199238
#	211018
#	224565
#	243670
#	263365
#
# Disc length: 3690
#
# Revision: 6
# Processed by: cddbd v1.5.1PL0 Copyright (c) Steve Scherf et al.
# Submitted via: ExactAudioCopy v0.95a4
# Normalized: r4:TSWAP
#
DISCID=220e6814
DTITLE=Various Artist - The Best Of Chess Blues
DYEAR=1989
DGENRE=Blues
TTITLE0=Muddy Waters - Rollin' Stone
TTITLE1=McKullum - Black Angel Blues
TTITLE2=Eddie Boyd and His Chess Man - 24 Hours
TTITLE3=Willie Mabon - Seventh Son
TTITLE4=Lowen Fulson - Reconsider Baby
TTITLE5=Muddy Waters - Hoochie Coochie Man
TTITLE6=Howlin Wolf - Smokestack Lightnin
TTITLE7=Little Walter and His Night Cats - Juke
TTITLE8=J.B. Lenoir - Eisenhower Blues
TTITLE9=Jimmy Rogers - Walking By Myself
TTITLE10=Howlin' Wolf - Back Door Man
TTITLE11=Elmore James - Madison Blues
TTITLE12=Sonny Boy Williamson - Your Funeral My Trail
TTITLE13=Otis Rush - So Many Roads, So Many Trains
TTITLE14=Buddy Guy - My Time After Awhile
TTITLE15=Sonny Boy Williamson - Bring It On home
TTITLE16=John Lee Hooker - One Bourbon, One Scotch, One Beer
TTITLE17=Etta James - Baby What Do You Want Me To Do
TTITLE18=Little Milton - Stormy Monday
TTITLE19=Koko Taylor - Wang Dang Doodle
EXTD=
EXTT0=
EXTT1=
EXTT2=
EXTT3=
EXTT4=
EXTT5=
EXTT6=
EXTT7=
EXTT8=
EXTT9=
EXTT10=
EXTT11=
EXTT12=
EXTT13=
EXTT14=
EXTT15=
EXTT16=
EXTT17=
EXTT18=
EXTT19=
PLAYORDER=
